<?xml version="1.0" encoding="utf-8"?>
<svg version="1.1" id="Layer_1" xmlns="http://www.w3.org/2000/svg" xmlns:xlink="http://www.w3.org/1999/xlink" x="0px" y="0px" viewBox="0 0 800 660" style="enable-background:new 0 0 800 660;" xml:space="preserve" width="800" height="660">
  <style type="text/css">
    .st0{opacity:0.18;fill:#386483;fill-opacity:0.19;stroke:#386483;stroke-miterlimit:10;}
  </style>
  <rect x="-165.2" y="243.5" transform="matrix(0.9759 0.2182 -0.2182 0.9759 99.992 17.8286)" class="st0" width="268.9" height="436.3" />
  <rect x="131.9" y="527.9" transform="matrix(0.9841 0.1776 -0.1776 0.9841 117.3847 -33.109)" class="st0" width="223.6" height="222.9" />
  <rect x="48.1" y="477.7" transform="matrix(0.9713 0.238 -0.238 0.9713 150.4329 -13.1473)" class="st0" width="163" height="277.2" />
  <rect x="378.1" y="-78.1" transform="matrix(0.9246 0.381 -0.381 0.9246 73.0072 -184.9348)" class="st0" width="251.1" height="340.2" />
  <rect x="393.8" y="-60.6" transform="matrix(0.8334 0.5527 -0.5527 0.8334 169.1522 -280.3887)" class="st0" width="311.7" height="401.8" />
  <rect x="245.9" y="-82.1" transform="matrix(-0.9246 -0.381 0.381 -0.9246 617.3323 132.0599)" class="st0" width="151.6" height="174" />
  <rect x="245.5" y="-47.3" transform="matrix(0.9653 0.2612 -0.2612 0.9653 31.6347 -86.0346)" class="st0" width="188.1" height="246.7" />
  <rect x="-184.5" y="30.5" transform="matrix(0.8952 0.4456 -0.4456 0.8952 57.4435 57.1185)" class="st0" width="183.5" height="240.5" />
  <rect x="-209.5" y="117.5" transform="matrix(0.8952 0.4456 -0.4456 0.8952 93.5892 77.3712)" class="st0" width="183.5" height="240.5" />
  <rect x="-151.5" y="-44.5" transform="matrix(0.9633 0.2683 -0.2683 0.9633 18.1273 18.8095)" class="st0" width="183.5" height="240.5" />
  <rect x="424.1" y="283.1" transform="matrix(0.9659 0.2591 -0.2591 0.9659 127.0406 -123.0634)" class="st0" width="212.6" height="274.9" />
  <rect x="144.2" y="65.5" transform="matrix(0.9844 0.1762 -0.1762 0.9844 41.0032 -41.8995)" class="st0" width="224.6" height="289.1" />
  <rect x="-130.4" y="170.2" transform="matrix(0.9227 0.3855 -0.3855 0.9227 128.6971 24.1844)" class="st0" width="268.9" height="325.6" />
  <rect x="292.4" y="494.2" transform="matrix(0.866 0.5 -0.5 0.866 374.2369 -115.9294)" class="st0" width="222.1" height="292.4" />
  <rect x="81.6" y="169.5" transform="matrix(0.8957 0.4447 -0.4447 0.8957 189.4181 -67.1831)" class="st0" width="312.6" height="401.3" />
  <rect x="309.2" y="374.8" transform="matrix(0.8939 0.4483 -0.4483 0.8939 251.9803 -121.2972)" class="st0" width="146.1" height="193.7" />
  <rect x="22.5" y="284" transform="matrix(0.9652 0.2616 -0.2616 0.9652 114.4712 -19.0003)" class="st0" width="212.2" height="273" />
  <rect x="-6.2" y="-60.9" transform="matrix(0.8331 0.5531 -0.5531 0.8331 102.0658 -58.8302)" class="st0" width="309.5" height="401.3" />
  <rect x="257.1" y="59.7" transform="matrix(0.9761 0.2173 -0.2173 0.9761 66.497 -83.6387)" class="st0" width="312.8" height="401.6" />
</svg>
