<?xml version="1.0" encoding="UTF-8" standalone="no"?>
<svg width="286px" height="87px" viewBox="0 0 286 87" version="1.1" xmlns="http://www.w3.org/2000/svg" xmlns:xlink="http://www.w3.org/1999/xlink">
    <!-- Generator: Sketch 40.2 (33826) - http://www.bohemiancoding.com/sketch -->
    <title>Page 1</title>
    <desc>Created with Sketch.</desc>
    <defs>
        <polygon id="path-1" points="0 86.5737187 285.537753 86.5737187 285.537753 0.560966022 0 0.560966022"></polygon>
    </defs>
    <g id="Welcome" stroke="none" stroke-width="1" fill="none" fill-rule="evenodd">
        <g id="Page-1">
            <path d="M75.2643396,75.5165114 C73.1721122,61.5148125 62.05807,50.4464168 47.9986275,48.3627824 C50.0908549,62.3644813 61.2048971,73.432877 75.2643396,75.5165114 L75.2643396,75.5165114 Z" id="Fill-1" fill="#FFFFFF"></path>
            <path d="M11.1028077,11.6184976 C13.1950351,25.6201966 24.3090774,36.6885923 38.3685199,38.7722267 C36.2762925,24.7705277 25.1622502,13.702132 11.1028077,11.6184976" id="Fill-3" fill="#FFFFFF"></path>
            <path d="M75.2643396,11.6184976 C61.2048971,13.702132 50.0908549,24.7705277 47.9986275,38.7722267 C62.05807,36.6885923 73.1721122,25.6201966 75.2643396,11.6184976" id="Fill-5" fill="#FFFFFF"></path>
            <path d="M52.1780349,43.5675045 C57.0870354,46.7780852 62.9599258,48.6476809 69.2724283,48.6476809 C75.5849307,48.6476809 81.4578212,46.7780852 86.3668217,43.5675045 C81.4578212,40.3569239 75.5849307,38.4873282 69.2724283,38.4873282 C62.9599258,38.4873282 57.0870354,40.3569239 52.1780349,43.5675045" id="Fill-7" fill="#FFFFFF"></path>
            <path d="M43.1835737,0.561290323 C39.9597525,5.45012903 38.0824465,11.2988989 38.0824465,17.5854753 C38.0824465,23.8720516 39.9597525,29.7208215 43.1835737,34.6096602 C46.4073949,29.7208215 48.2847009,23.8720516 48.2847009,17.5854753 C48.2847009,11.2988989 46.4073949,5.45012903 43.1835737,0.561290323" id="Fill-9" fill="#FFFFFF"></path>
            <path d="M11.1028077,75.5165114 C25.1622502,73.432877 36.2762925,62.3644813 38.3685199,48.3627824 C24.3090774,50.4464168 13.1950351,61.5148125 11.1028077,75.5165114" id="Fill-11" fill="#FFFFFF"></path>
            <path d="M43.1835737,86.5737187 C46.4073949,81.68488 48.2847009,75.8361101 48.2847009,69.5495338 C48.2847009,63.2629574 46.4073949,57.4141875 43.1835737,52.5253488 C39.9597525,57.4141875 38.0824465,63.2629574 38.0824465,69.5495338 C38.0824465,75.8361101 39.9597525,81.68488 43.1835737,86.5737187" id="Fill-13" fill="#FFFFFF"></path>
            <path d="M0,43.5675045 C4.90900049,46.7780852 10.781891,48.6476809 17.0943934,48.6476809 C23.4068959,48.6476809 29.2797863,46.7780852 34.1887868,43.5675045 C29.2797863,40.3569239 23.4068959,38.4873282 17.0943934,38.4873282 C10.781891,38.4873282 4.90900049,40.3569239 0,43.5675045" id="Fill-15" fill="#FFFFFF"></path>
            <path d="M250.383611,27.3767733 L250.383611,26.1492938 L254.86114,26.1492938 L254.86114,31.6543045 L250.338021,31.6543045 C250.383611,30.1527905 250.383611,28.7420809 250.383611,27.3767733 L250.383611,27.3767733 Z M250.383611,21.1437067 L254.86114,21.1437067 L254.86114,15.8657067 L250.383611,15.8657067 L250.383611,21.1437067 Z M245.495777,27.3767733 C245.495777,34.0200809 245.313419,43.119969 242.480364,49.3076335 C243.667317,49.7632766 245.906081,51.0361583 246.866715,51.8096163 C248.739136,47.6699131 249.652552,42.0724766 250.064485,36.7490744 L254.86114,36.7490744 L254.86114,45.7581583 C254.86114,46.3954099 254.633193,46.5770185 254.084492,46.5770185 C253.535792,46.5770185 251.845728,46.6240422 250.201253,46.5316163 C250.886722,47.8969239 251.526602,50.355126 251.66337,51.7642142 C254.633193,51.7642142 256.596793,51.6280077 258.013321,50.7637454 C259.521027,49.8540809 259.887371,48.3525669 259.887371,45.8489626 L259.887371,10.8601196 L245.495777,10.8601196 L245.495777,27.3767733 Z" id="Fill-17" fill="#FFFFFF"></path>
            <path d="M267.562019,47.4874938 L267.562019,31.5626895 L267.835555,31.5626895 L272.451481,31.5626895 L278.9382,31.5626895 C278.213654,34.0857518 277.220457,36.4726077 276.004197,38.5951583 C273.185796,35.9245389 270.111768,35.2694508 270.111768,35.2694508 C270.468343,38.6859626 271.435489,41.3338809 272.643608,43.3850852 C271.09194,45.0568572 269.421415,46.4594594 267.562019,47.4874938 M285.483534,52.3552529 L285.537264,52.3536314 C284.461029,47.7469346 281.702871,44.4374422 279.398979,42.7170249 C281.930818,38.6373174 283.788586,33.6592959 284.832257,27.5591927 L281.587269,26.5117002 L280.765032,26.6949303 L267.562019,26.6949303 L267.562019,15.9119196 L278.207142,15.9119196 L278.207142,19.5505776 C278.207142,20.0970249 277.979195,20.2332314 277.248136,20.2786335 C276.517078,20.3240357 273.820791,20.3240357 271.536437,20.1878292 C272.176317,21.5077346 272.907375,23.3270637 273.13695,24.7377733 C276.608257,24.7377733 279.211736,24.7377733 280.994607,24.0551196 C282.912618,23.3270637 283.41573,22.0525604 283.41573,19.6867841 L283.41573,10.9063325 L262.39902,10.9063325 L262.39902,51.8104271 L267.562019,51.8104271 L267.562019,48.0793432 C268.566614,49.079812 269.709605,50.6721303 270.258306,51.7196228 C272.332623,50.4953862 274.201788,48.9890077 275.846263,47.253997 C276.328208,47.6723454 276.802012,48.0323196 277.254649,48.3387841 C280.86598,51.5899024 284.996705,52.3163368 285.483534,52.3552529" id="Fill-19" fill="#FFFFFF"></path>
            <path d="M229.940839,36.5867617 C224.968339,37.3229252 221.039511,41.2372391 220.298683,46.1893166 C225.271183,45.4515316 229.20164,41.5388391 229.940839,36.5867617" id="Fill-21" fill="#FFFFFF"></path>
            <path d="M207.896252,22.4175613 C210.592539,20.6890366 213.10484,18.7772817 215.298015,16.5023097 C217.627959,18.6410753 220.322618,20.6436344 223.201262,22.4175613 L207.896252,22.4175613 Z M212.191424,45.8499355 L205.520719,45.8499355 L209.26719,44.2122151 C208.627311,42.2096559 206.891657,39.206628 205.292772,36.9770581 L212.191424,36.9770581 L212.191424,45.8499355 Z M220.394258,46.8277032 L219.529688,46.9558022 L219.658315,46.0947828 C219.669712,46.012086 219.690879,45.9310108 219.705533,45.8499355 L218.038264,45.8499355 L218.038264,36.9770581 L226.488583,36.9770581 C227.537139,36.4808774 228.66222,36.1241462 229.845916,35.9490237 L230.710486,35.8193032 L230.581859,36.6819441 C230.567205,36.7808559 230.542782,36.8781462 230.524872,36.9770581 L232.612215,36.9770581 L232.612215,32.1092989 L218.038264,32.1092989 L218.038264,27.3761247 L227.221269,27.3761247 L227.221269,24.6925333 C229.277677,25.6930022 231.379673,26.6026667 233.43608,27.3307226 C234.258318,25.9216344 235.948381,23.7828688 237.182551,22.5991699 C230.329489,20.6890366 222.927726,16.9125505 218.450196,12.9090538 C218.907718,12.2718022 219.318023,11.6799527 219.729956,11.0881032 L214.566957,8.76772903 C210.226196,15.547243 202.002195,20.1425892 193.41348,22.5991699 C194.784418,23.9644774 196.292124,26.0124387 197.023182,27.604757 C199.032372,26.8767011 200.9976,26.0578409 202.917239,25.1481763 L202.917239,27.3761247 L212.191424,27.3761247 L212.191424,32.1092989 L197.663062,32.1092989 L197.663062,36.9770581 L204.286549,36.9770581 L200.678475,38.478572 C202.186181,40.7535441 203.739477,43.756572 204.470535,45.8499355 L195.469887,45.8499355 L195.469887,50.8084989 L234.989376,50.8084989 L234.989376,45.8499355 L223.640874,45.8499355 C222.623254,46.3185505 221.535621,46.6590667 220.394258,46.8277032 L220.394258,46.8277032 Z" id="Fill-23" fill="#FFFFFF"></path>
            <polygon id="Fill-25" fill="#FFFFFF" points="157.991825 61.460492 157.991825 67.1973781 164.447609 67.1973781 164.447609 69.1950727 157.991825 69.1950727 157.991825 78.7749265 155.831214 78.7749265 155.831214 59.4627974 164.652761 59.4627974 164.652761 61.460492"></polygon>
            <mask id="mask-2" fill="white">
                <use xlink:href="#path-1"></use>
            </mask>
            <g id="Clip-28"></g>
            <polygon id="Fill-27" fill="#FFFFFF" mask="url(#mask-2)" points="168.176007 78.7742778 170.336618 78.7742778 170.336618 59.4621488 168.176007 59.4621488"></polygon>
            <polygon id="Fill-29" fill="#FFFFFF" mask="url(#mask-2)" points="174.400424 58.6431265 189.523076 74.4203738 189.523076 59.4619867 191.683688 59.4619867 191.683688 79.6464856 176.561036 63.8935609 176.561036 78.7757372 174.400424 78.7757372"></polygon>
            <polygon id="Fill-30" fill="#FFFFFF" mask="url(#mask-2)" points="213.827269 58.6431265 228.949921 74.4203738 228.949921 59.4619867 231.110533 59.4619867 231.110533 79.6464856 215.987881 63.8935609 215.987881 78.7757372 213.827269 78.7757372"></polygon>
            <path d="M249.936835,63.6887647 C249.165071,62.8861196 248.269566,62.258597 247.248689,61.806197 C246.22944,61.353797 245.153205,61.1267862 244.021611,61.1267862 C242.940491,61.1267862 241.926127,61.3456895 240.973635,61.7802529 C240.02277,62.2164378 239.19402,62.8001798 238.492269,63.5347217 C237.78889,64.2692637 237.232048,65.1189325 236.820116,66.0837282 C236.408183,67.0485239 236.203031,68.0603432 236.203031,69.1191862 C236.203031,70.1780292 236.408183,71.1898486 236.820116,72.1546443 C237.232048,73.11944 237.793775,73.9691088 238.505295,74.7020292 C239.216815,75.4365712 240.052078,76.0219346 241.012711,76.4564981 C241.971717,76.892683 242.992594,77.1099647 244.073713,77.1099647 C245.169487,77.1099647 246.22944,76.876468 247.248689,76.4062314 C248.269566,75.9359948 249.165071,75.3165798 249.936835,74.5496077 L249.936835,77.2121196 C249.096687,77.8104551 248.178387,78.2758271 247.185189,78.6082357 C246.190364,78.9422658 245.179256,79.1076594 244.150238,79.1076594 C242.777672,79.1076594 241.480003,78.846597 240.253974,78.3260938 C239.027945,77.8055905 237.956594,77.0969927 237.038293,76.2003002 C236.121621,75.3036077 235.392191,74.2544938 234.853259,73.0497153 C234.312699,71.8465583 234.042419,70.562326 234.042419,69.195397 C234.042419,67.8122529 234.307815,66.5101841 234.840234,65.2891905 C235.371024,64.068197 236.09557,63.0012465 237.013871,62.0883389 C237.930543,61.1738099 239.001894,60.4538615 240.227923,59.9236292 C241.453952,59.3950185 242.76139,59.1290916 244.150238,59.1290916 C246.31085,59.1290916 248.240258,59.7614787 249.936835,61.0246314 L249.936835,63.6887647 Z" id="Fill-31" fill="#FFFFFF" mask="url(#mask-2)"></path>
            <polygon id="Fill-32" fill="#FFFFFF" mask="url(#mask-2)" points="253.639833 78.7742778 255.800444 78.7742778 255.800444 59.4621488 253.639833 59.4621488"></polygon>
            <path d="M266.833891,63.560828 L263.515635,71.2954086 L270.073994,71.2954086 L266.833891,63.560828 Z M262.641295,73.2947247 L260.301583,78.7754129 L257.935819,78.7754129 L266.885993,58.5406473 L275.604964,78.7754129 L273.21315,78.7754129 L270.923911,73.2947247 L262.641295,73.2947247 Z" id="Fill-33" fill="#FFFFFF" mask="url(#mask-2)"></path>
            <path d="M202.819874,63.560828 L199.501617,71.2954086 L206.059977,71.2954086 L202.819874,63.560828 Z M198.627278,73.2947247 L196.287565,78.7754129 L193.921801,78.7754129 L202.871976,58.5406473 L211.590947,78.7754129 L209.199132,78.7754129 L206.909893,73.2947247 L198.627278,73.2947247 Z" id="Fill-34" fill="#FFFFFF" mask="url(#mask-2)"></path>
            <polygon id="Fill-35" fill="#FFFFFF" mask="url(#mask-2)" points="279.873434 76.7772318 285.223675 76.7772318 285.223675 78.7749265 277.712822 78.7749265 277.712822 59.4627974 279.873434 59.4627974"></polygon>
            <polygon id="Fill-36" fill="#FFFFFF" mask="url(#mask-2)" points="99.1865584 59.3107002 104.207904 59.3107002 108.190463 69.7548163 112.405854 59.3107002 117.479302 59.3107002 120.445868 78.84984 115.346369 78.84984 113.915188 67.6030787 113.863086 67.6030787 109.152725 78.84984 107.122369 78.84984 102.622045 67.6030787 102.569943 67.6030787 100.930353 78.84984 95.8552765 78.84984"></polygon>
            <path d="M144.489388,65.8672572 C143.968366,65.1586594 143.313833,64.6235626 142.524159,64.2603454 C141.736114,63.8971282 140.897595,63.7155196 140.013486,63.7155196 C139.233582,63.7155196 138.522062,63.854969 137.880554,64.1306249 C137.237418,64.4079024 136.687089,64.7921991 136.227939,65.2835153 C135.76716,65.7764529 135.412214,66.3504658 135.161472,67.0071755 C134.909103,67.6638852 134.783732,68.372483 134.783732,69.132969 C134.783732,69.9096701 134.909103,70.6231325 135.161472,71.2701131 C135.412214,71.9187153 135.772045,72.4748916 136.240964,72.9418852 C136.708255,73.4088787 137.268354,73.7753389 137.918002,74.0428873 C138.569279,74.3120572 139.293825,74.4450206 140.091639,74.4450206 C140.923646,74.4450206 141.731229,74.260169 142.511134,73.8872228 C143.292666,73.5158981 143.950456,73.0116099 144.489388,72.3711153 L144.489388,78.4614895 C143.639471,78.7209303 142.875849,78.9365905 142.200149,79.1100916 C141.522821,79.2819712 140.78525,79.3695325 139.987435,79.3695325 C138.616497,79.3695325 137.302546,79.1230637 136.045581,78.630126 C134.786988,78.1371884 133.647253,77.4253475 132.62312,76.4929819 C131.530603,75.5071067 130.732789,74.397997 130.229677,73.1624099 C129.726566,71.9268228 129.474196,70.5761088 129.474196,69.1070249 C129.474196,67.759554 129.721681,66.4720787 130.216652,65.2445991 C130.711622,64.0187411 131.426399,62.9209819 132.364238,61.9545647 C133.33464,60.9686895 134.476003,60.1968529 135.78507,59.6341905 C137.094137,59.0731497 138.443909,58.7926292 139.831129,58.7926292 C140.664763,58.7926292 141.457693,58.878569 142.213174,59.0520701 C142.967028,59.2239497 143.725765,59.4671755 144.489388,59.776883 L144.489388,65.8672572 Z" id="Fill-37" fill="#FFFFFF" mask="url(#mask-2)"></path>
            <path d="M129.709144,56.9711923 C125.59633,57.5808783 122.346458,60.817403 121.734257,64.9133256 C125.847071,64.3036396 129.096944,61.0671148 129.709144,56.9711923" id="Fill-38" fill="#FFFFFF" mask="url(#mask-2)"></path>
            <path d="M122.501787,78.8503265 L127.238199,78.8503265 L127.238199,64.6118877 C125.864005,65.6577587 124.252094,66.3987867 122.501787,66.7376813 L122.501787,78.8503265 Z" id="Fill-39" fill="#FFFFFF" mask="url(#mask-2)"></path>
            <path d="M166.733591,21.1889467 C166.870359,20.5516951 167.008756,19.8690413 167.099934,19.2334112 C167.922172,19.778237 168.698819,20.3246843 169.200303,20.7787058 C170.297705,19.6420305 171.393478,18.3221252 172.354112,16.7298069 L174.684055,16.7298069 C175.779829,18.2313209 176.921192,19.9598456 177.424303,21.1889467 L166.733591,21.1889467 Z M186.835256,12.8171144 L174.45448,12.8171144 C174.866413,11.952852 175.185539,11.0431875 175.504664,10.1789252 L170.388883,8.90442194 C169.521057,11.5426112 168.05894,14.2732262 166.277697,16.3211875 L166.277697,12.8171144 L155.906111,12.8171144 L155.671651,12.8171144 C156.39294,11.4177553 156.89768,9.8886757 157.138653,8.27365634 C150.70892,9.22710151 145.625703,14.2894413 144.668326,20.692766 C147.779802,20.230637 150.570524,18.8020908 152.73602,16.7298069 L153.667346,16.7298069 L154.810337,16.7298069 C155.585357,18.0043101 156.316415,19.5058241 156.637169,20.5062929 L161.342646,19.0047789 C161.114699,18.3675273 160.702766,17.5486671 160.199654,16.7298069 L165.911354,16.7298069 C165.545011,17.1400477 165.180295,17.5032649 164.769991,17.8681037 C165.317064,18.1405166 166.002533,18.5491359 166.688002,18.9593768 L161.800168,18.3221252 C161.661771,19.2771918 161.479414,20.23388 161.297056,21.1889467 L150.287218,21.1889467 L148.458758,21.1889467 L148.458758,25.1016391 L160.42923,25.1016391 C160.292461,25.6026843 160.155693,26.102108 160.064514,26.6031531 L150.87988,26.6031531 L150.87988,30.4250413 L158.739166,30.4250413 C158.556808,30.9714886 158.327233,31.4725338 158.099286,31.9719574 L145.671292,31.9719574 L145.671292,35.930052 L155.99729,35.930052 C153.34822,40.0259746 149.875286,43.2106112 145.260988,45.4855832 C146.402351,46.4406499 148.458758,48.5340133 149.235406,49.48908 C153.027466,47.3049123 156.179647,44.5305166 158.739166,41.0718456 L158.739166,42.4825553 L161.982525,42.4825553 L159.424635,44.4851144 C161.160288,45.9866284 163.307874,48.2616004 164.175701,49.7631144 L168.195708,46.5768563 C167.41906,45.3947789 165.774586,43.8024606 164.22129,42.4825553 L173.037953,42.4825553 L173.037953,46.5768563 C173.037953,47.0324994 172.855595,47.1687058 172.354112,47.214108 C171.851,47.214108 170.206526,47.214108 168.744409,47.1233037 C169.38266,48.443209 170.159308,50.3079402 170.388883,51.7186499 C172.946774,51.7186499 174.912002,51.6732477 176.419708,50.9451918 C178.018594,50.2171359 178.428898,49.0804606 178.428898,46.7600865 L178.428898,42.4825553 L184.231776,42.4825553 L184.231776,38.3882542 L178.428898,38.3882542 L178.428898,36.4764994 L173.037953,36.4764994 L173.037953,38.3882542 L160.565998,38.3882542 C161.02352,37.569394 161.479414,36.7959359 161.936936,35.930052 L186.698488,35.930052 L186.698488,31.9719574 L163.718179,31.9719574 C163.946125,31.4725338 164.084522,30.9714886 164.266879,30.4250413 L181.170774,30.4250413 L181.170774,26.6031531 L165.453832,26.6031531 C165.592228,26.102108 165.728996,25.6026843 165.865764,25.1016391 L183.500718,25.1016391 L183.500718,21.1889467 L177.699468,21.1889467 L182.038601,19.4150198 C181.673886,18.6869639 181.034006,17.6848735 180.394126,16.7298069 L186.835256,16.7298069 L186.835256,12.8171144 Z" id="Fill-40" fill="#FFFFFF" mask="url(#mask-2)"></path>
            <path d="M123.866538,31.7164082 C127.658598,37.1306146 133.461477,42.3632125 138.943601,45.4116426 C137.618252,46.5045372 135.79142,48.5962791 134.785197,50.0977931 C129.485431,46.5953415 124.140074,41.1357329 120.074478,35.1750791 L120.074478,51.8279394 L114.22601,51.8279394 L114.22601,35.3566877 C110.251592,41.4081458 104.906236,46.8677544 99.5608799,50.3264254 C98.6018745,48.9611178 96.8190037,46.8677544 95.5408725,45.7764813 C101.114176,42.7280512 106.871464,37.2668211 110.525128,31.7164082 L96.7278249,31.7164082 L96.7278249,26.2113974 L114.22601,26.2113974 L114.22601,9.33152645 L120.074478,9.33152645 L120.074478,26.2113974 L137.618252,26.2113974 L137.618252,31.7164082 L123.866538,31.7164082 Z" id="Fill-41" fill="#FFFFFF" mask="url(#mask-2)"></path>
            <path d="M136.53062,11.3107359 C129.897363,12.2933682 124.654583,17.5146155 123.667899,24.1206284 C130.301155,23.1379961 135.543935,17.9167488 136.53062,11.3107359" id="Fill-42" fill="#FFFFFF" mask="url(#mask-2)"></path>
            <path d="M97.9530398,11.3107359 C104.586296,12.2933682 109.829076,17.5146155 110.815761,24.1206284 C104.182504,23.1379961 98.9397245,17.9167488 97.9530398,11.3107359" id="Fill-43" fill="#FFFFFF" mask="url(#mask-2)"></path>
        </g>
    </g>
</svg>